<svg width="768" height="997" viewBox="0 0 768 997" fill="none" xmlns="http://www.w3.org/2000/svg">
<rect width="768" height="997" rx="90" fill="#B1B4FB"/>
<g filter="url(#filter0_d)">
<rect x="181" y="203" width="405" height="102" rx="15" fill="#7033EB" fill-opacity="0.7"/>
</g>
<g filter="url(#filter1_d)">
<rect x="181" y="855" width="405" height="102" rx="15" fill="#7033EB" fill-opacity="0.7"/>
</g>
<g filter="url(#filter2_d)">
<rect x="181" y="692" width="405" height="102" rx="15" fill="#7033EB" fill-opacity="0.7"/>
</g>
<g filter="url(#filter3_d)">
<rect x="181" y="529" width="405" height="102" rx="15" fill="#7033EB" fill-opacity="0.7"/>
</g>
<g filter="url(#filter4_d)">
<rect x="181" y="366" width="405" height="102" rx="15" fill="#7033EB" fill-opacity="0.7"/>
</g>
<g filter="url(#filter5_d)">
<rect x="181" y="40" width="405" height="102" rx="15" fill="#7033EB" fill-opacity="0.7"/>
</g>
<path d="M297.282 104.54C295.578 104.54 293.982 104.156 292.494 103.388C291.822 103.052 291.258 102.656 290.802 102.2C290.466 102.752 290.046 103.244 289.542 103.676C289.11 103.988 288.87 104.156 288.822 104.18H287.922V97.34H289.362C289.722 98.516 290.226 99.572 290.874 100.508C292.338 102.596 294.234 103.64 296.562 103.64C297.93 103.64 299.022 103.232 299.838 102.416C300.654 101.6 301.062 100.508 301.062 99.14C301.062 98.348 300.822 97.64 300.342 97.016C299.886 96.392 299.31 95.84 298.614 95.36C297.918 94.88 296.946 94.28 295.698 93.56C294.114 92.672 292.83 91.868 291.846 91.148C290.862 90.428 290.022 89.528 289.326 88.448C288.63 87.344 288.282 86.048 288.282 84.56C288.282 83.384 288.606 82.328 289.254 81.392C289.926 80.432 290.922 79.676 292.242 79.124C293.562 78.548 295.182 78.26 297.102 78.26C298.494 78.26 299.886 78.656 301.278 79.448C301.806 79.736 302.334 80.12 302.862 80.6C303.27 79.976 303.69 79.484 304.122 79.124C304.554 78.812 304.794 78.644 304.842 78.62H305.742V85.46H304.302C303.99 84.308 303.522 83.264 302.898 82.328C302.322 81.416 301.602 80.66 300.738 80.06C299.898 79.46 298.926 79.16 297.822 79.16C296.886 79.16 296.082 79.532 295.41 80.276C294.738 81.02 294.402 81.968 294.402 83.12C294.402 84.008 294.654 84.812 295.158 85.532C295.686 86.228 296.322 86.84 297.066 87.368C297.834 87.896 298.866 88.532 300.162 89.276C301.674 90.14 302.898 90.908 303.834 91.58C304.77 92.252 305.562 93.092 306.21 94.1C306.858 95.084 307.182 96.224 307.182 97.52C307.182 98.816 306.81 100.004 306.066 101.084C305.322 102.14 304.206 102.98 302.718 103.604C301.23 104.228 299.418 104.54 297.282 104.54ZM310.592 87.26C311.096 87.092 311.6 86.816 312.104 86.432C313.136 85.664 313.772 84.62 314.012 83.3L313.544 83.588C313.232 83.756 312.848 83.84 312.392 83.84C311.672 83.84 311.036 83.576 310.484 83.048C309.956 82.496 309.692 81.86 309.692 81.14C309.692 80.42 309.956 79.796 310.484 79.268C311.036 78.716 311.672 78.44 312.392 78.44C313.232 78.44 313.916 78.74 314.444 79.34C314.996 79.916 315.272 80.696 315.272 81.68C315.272 83.888 314.552 85.616 313.112 86.864C312.488 87.44 311.768 87.872 310.952 88.16L310.592 87.26ZM318.336 103.46L320.496 102.92V87.08L318.336 86.54V86H323.016C325.176 86 326.256 87.08 326.256 89.24V102.92L328.416 103.46V104H318.336V103.46ZM323.016 83.84C322.296 83.84 321.696 83.6 321.216 83.12C320.736 82.64 320.496 82.04 320.496 81.32C320.496 80.6 320.736 80 321.216 79.52C321.696 79.04 322.296 78.8 323.016 78.8C323.736 78.8 324.336 79.04 324.816 79.52C325.296 80 325.536 80.6 325.536 81.32C325.536 82.04 325.296 82.64 324.816 83.12C324.336 83.6 323.736 83.84 323.016 83.84ZM330.571 103.46L332.731 102.92V87.08L330.571 86.54V86H333.811C335.227 86 336.343 86.456 337.159 87.368C337.471 87.728 337.735 88.172 337.951 88.7C338.287 88.076 338.683 87.536 339.139 87.08C340.219 86 341.563 85.46 343.171 85.46C344.515 85.46 345.715 85.748 346.771 86.324C347.851 86.876 348.691 87.608 349.291 88.52C349.891 89.432 350.191 90.392 350.191 91.4V102.92L352.351 103.46V104H347.671C345.511 104 344.431 102.92 344.431 100.76V91.4C344.431 89.888 344.155 88.736 343.603 87.944C343.075 87.128 342.451 86.72 341.731 86.72C340.819 86.72 340.003 87.2 339.283 88.16C338.971 88.568 338.707 89.048 338.491 89.6V102.92L340.651 103.46V104H330.571V103.46ZM354.332 103.46L356.492 102.92V87.62H353.972V86.72H356.492V84.92C356.492 83.648 356.792 82.508 357.392 81.5C358.016 80.492 358.892 79.7 360.02 79.124C361.172 78.548 362.516 78.26 364.052 78.26C365.3 78.26 366.368 78.452 367.256 78.836C368.168 79.196 368.852 79.688 369.308 80.312C369.764 80.912 369.992 81.548 369.992 82.22C369.992 83.036 369.74 83.696 369.236 84.2C368.756 84.68 368.108 84.92 367.292 84.92C366.956 84.92 366.62 84.896 366.284 84.848L365.852 84.74V79.16L365.528 79.088C365.432 79.064 365.324 79.04 365.204 79.016C365.084 78.992 364.94 78.98 364.772 78.98C363.956 78.98 363.332 79.412 362.9 80.276C362.468 81.116 362.252 82.664 362.252 84.92V86.72H368.012V87.62H362.252V102.92L364.412 103.46V104H354.332V103.46ZM378.642 104.54C375.666 104.54 373.326 103.7 371.622 102.02C369.942 100.316 369.102 97.976 369.102 95C369.102 92.024 369.942 89.696 371.622 88.016C373.326 86.312 375.666 85.46 378.642 85.46C381.618 85.46 383.946 86.312 385.626 88.016C387.33 89.696 388.182 92.024 388.182 95C388.182 97.976 387.33 100.316 385.626 102.02C383.946 103.7 381.618 104.54 378.642 104.54ZM378.642 103.82C379.602 103.82 380.406 103.148 381.054 101.804C381.726 100.46 382.062 98.192 382.062 95C382.062 91.808 381.726 89.54 381.054 88.196C380.406 86.852 379.602 86.18 378.642 86.18C377.682 86.18 376.866 86.852 376.194 88.196C375.546 89.54 375.222 91.808 375.222 95C375.222 98.192 375.546 100.46 376.194 101.804C376.866 103.148 377.682 103.82 378.642 103.82ZM391.075 103.46L393.235 102.92V87.08L391.075 86.54V86H394.315C395.731 86 396.847 86.456 397.663 87.368C397.975 87.728 398.239 88.172 398.455 88.7C398.815 88.172 399.259 87.692 399.787 87.26C400.987 86.3 402.331 85.82 403.819 85.82C405.091 85.82 406.039 86.12 406.663 86.72C407.311 87.296 407.635 88.136 407.635 89.24C407.635 90.056 407.383 90.716 406.879 91.22C406.399 91.7 405.751 91.94 404.935 91.94C404.599 91.94 404.263 91.916 403.927 91.868L403.495 91.76V86.72C402.271 86.72 401.155 87.2 400.147 88.16C399.667 88.64 399.283 89.12 398.995 89.6V102.92L401.155 103.46V104H391.075V103.46ZM409.251 103.46L411.411 102.92V87.08L409.251 86.54V86H412.491C413.907 86 415.023 86.456 415.839 87.368C416.151 87.728 416.415 88.172 416.631 88.7C416.991 88.028 417.375 87.488 417.783 87.08C418.863 86 420.099 85.46 421.491 85.46C422.883 85.46 424.107 85.772 425.163 86.396C426.219 86.996 427.035 87.824 427.611 88.88C427.971 88.184 428.355 87.62 428.763 87.188C429.867 86.036 431.103 85.46 432.471 85.46C433.743 85.46 434.883 85.724 435.891 86.252C436.923 86.78 437.715 87.5 438.267 88.412C438.843 89.324 439.131 90.32 439.131 91.4V102.92L441.291 103.46V104H436.611C434.451 104 433.371 102.92 433.371 100.76V91.4C433.371 89.84 433.131 88.676 432.651 87.908C432.171 87.116 431.631 86.72 431.031 86.72C430.335 86.72 429.627 87.2 428.907 88.16C428.619 88.616 428.367 89.096 428.151 89.6V102.92L430.311 103.46V104H420.231V103.46L422.391 102.92V91.4C422.391 89.84 422.151 88.676 421.671 87.908C421.191 87.116 420.651 86.72 420.051 86.72C419.355 86.72 418.647 87.2 417.927 88.16C417.639 88.616 417.387 89.096 417.171 89.6V102.92L419.331 103.46V104H409.251V103.46ZM453.178 104.54C450.106 104.54 447.718 103.7 446.014 102.02C444.31 100.316 443.458 97.976 443.458 95C443.458 93.056 443.83 91.364 444.574 89.924C445.318 88.484 446.35 87.38 447.67 86.612C449.014 85.844 450.55 85.46 452.278 85.46C454.006 85.46 455.518 85.784 456.814 86.432C458.134 87.08 459.142 87.956 459.838 89.06C460.558 90.14 460.918 91.34 460.918 92.66C460.918 93.26 460.858 93.776 460.738 94.208L460.558 94.82C459.526 95.036 458.41 95.216 457.21 95.36C454.69 95.72 452.146 95.9 449.578 95.9C449.578 98.684 449.962 100.676 450.73 101.876C451.498 103.052 452.554 103.64 453.898 103.64C454.834 103.64 455.698 103.424 456.49 102.992C457.306 102.536 457.942 101.948 458.398 101.228C458.878 100.484 459.118 99.728 459.118 98.96H460.018C460.018 99.92 459.73 100.832 459.154 101.696C458.578 102.56 457.774 103.256 456.742 103.784C455.71 104.288 454.522 104.54 453.178 104.54ZM449.578 95C451.114 95 452.362 94.94 453.322 94.82C453.73 94.796 454.162 94.736 454.618 94.64C454.642 94.52 454.702 94.256 454.798 93.848C454.918 93.248 454.978 92.612 454.978 91.94C454.978 89.948 454.714 88.496 454.186 87.584C453.658 86.648 453.022 86.18 452.278 86.18C450.478 86.18 449.578 89.12 449.578 95ZM463.602 103.46L465.762 102.92V87.08L463.602 86.54V86H466.842C468.258 86 469.374 86.456 470.19 87.368C470.502 87.728 470.766 88.172 470.982 88.7C471.342 88.172 471.786 87.692 472.314 87.26C473.514 86.3 474.858 85.82 476.346 85.82C477.618 85.82 478.566 86.12 479.19 86.72C479.838 87.296 480.162 88.136 480.162 89.24C480.162 90.056 479.91 90.716 479.406 91.22C478.926 91.7 478.278 91.94 477.462 91.94C477.126 91.94 476.79 91.916 476.454 91.868L476.022 91.76V86.72C474.798 86.72 473.682 87.2 472.674 88.16C472.194 88.64 471.81 89.12 471.522 89.6V102.92L473.682 103.46V104H463.602V103.46Z" fill="white"/>
<path d="M316.816 917.46L318.976 916.92V893.88L316.816 893.34V892.8H336.076V899.28H334.996C334.54 898.92 334.144 898.464 333.808 897.912C333.04 896.616 332.656 895.212 332.656 893.7H324.916V905.04H329.056C329.224 904.128 329.536 903.276 329.992 902.484C330.184 902.124 330.412 901.776 330.676 901.44H331.756V909.54H330.676C330.412 909.204 330.184 908.856 329.992 908.496C329.536 907.704 329.224 906.852 329.056 905.94H324.916V917.1H333.376C333.376 915.588 333.76 914.184 334.528 912.888C334.864 912.336 335.26 911.88 335.716 911.52H336.796V918H316.816V917.46ZM327.076 891L328.516 885.6H333.196L328.336 891H327.076ZM338.596 901.08L336.796 900.54V900H341.296C342.544 900 343.528 900.264 344.248 900.792C344.992 901.296 345.628 902.052 346.156 903.06L350.44 911.376L354.436 901.62L351.736 900.54V900H358.396V900.54L355.516 901.62L348.676 918.36H347.596L338.596 901.08ZM364.679 918.54C362.543 918.54 360.899 918.084 359.747 917.172C358.595 916.26 358.019 915.096 358.019 913.68C358.019 912.744 358.223 911.82 358.631 910.908C358.799 910.476 359.015 910.08 359.279 909.72C360.263 909.48 361.331 909.264 362.483 909.072C365.075 908.64 367.367 908.376 369.359 908.28V907.2C369.359 904.536 369.035 902.7 368.387 901.692C367.739 900.684 366.743 900.18 365.399 900.18C364.895 900.18 364.463 900.24 364.103 900.36L363.599 900.54V905.94L363.131 906.048C362.747 906.096 362.423 906.12 362.159 906.12C361.343 906.12 360.683 905.88 360.179 905.4C359.699 904.896 359.459 904.236 359.459 903.42C359.459 902.316 360.011 901.38 361.115 900.612C362.243 899.844 363.911 899.46 366.119 899.46C367.991 899.46 369.599 899.796 370.943 900.468C372.311 901.116 373.343 902.028 374.039 903.204C374.759 904.356 375.119 905.688 375.119 907.2V916.92L377.279 917.46V918H374.039C372.599 918 371.483 917.556 370.691 916.668C370.355 916.308 370.091 915.852 369.899 915.3C369.563 915.9 369.167 916.44 368.711 916.92C367.631 918 366.287 918.54 364.679 918.54ZM366.119 917.28C367.007 917.28 367.811 916.8 368.531 915.84C368.795 915.48 369.071 915 369.359 914.4V909.18C368.255 909.18 367.199 909.24 366.191 909.36C365.447 909.456 364.943 909.516 364.679 909.54C364.559 909.804 364.439 910.164 364.319 910.62C364.079 911.532 363.959 912.432 363.959 913.32C363.959 914.664 364.163 915.66 364.571 916.308C364.979 916.956 365.495 917.28 366.119 917.28ZM379.456 917.46L381.616 916.92V893.88L379.456 893.34V892.8H384.136C386.296 892.8 387.376 893.88 387.376 896.04V916.92L389.536 917.46V918H379.456V917.46ZM400.33 918.54C398.986 918.54 397.774 918.264 396.694 917.712C395.638 917.136 394.81 916.392 394.21 915.48C393.61 914.568 393.31 913.608 393.31 912.6V901.08L391.15 900.54V900H395.83C397.99 900 399.07 901.08 399.07 903.24V912.6C399.07 914.112 399.334 915.276 399.862 916.092C400.414 916.884 401.05 917.28 401.77 917.28C402.658 917.28 403.462 916.8 404.182 915.84C404.446 915.48 404.722 915 405.01 914.4V901.08L402.85 900.54V900H412.93V900.54L410.77 901.08V918.18H410.41C408.658 918.18 407.326 917.7 406.414 916.74C406.006 916.308 405.718 915.828 405.55 915.3C405.214 915.9 404.818 916.44 404.362 916.92C403.282 918 401.938 918.54 400.33 918.54ZM424.824 918.54C421.752 918.54 419.364 917.7 417.66 916.02C415.956 914.316 415.104 911.976 415.104 909C415.104 907.056 415.476 905.364 416.22 903.924C416.964 902.484 417.996 901.38 419.316 900.612C420.66 899.844 422.196 899.46 423.924 899.46C425.652 899.46 427.164 899.784 428.46 900.432C429.78 901.08 430.788 901.956 431.484 903.06C432.204 904.14 432.564 905.34 432.564 906.66C432.564 907.26 432.504 907.776 432.384 908.208L432.204 908.82C431.172 909.036 430.056 909.216 428.856 909.36C426.336 909.72 423.792 909.9 421.224 909.9C421.224 912.684 421.608 914.676 422.376 915.876C423.144 917.052 424.2 917.64 425.544 917.64C426.48 917.64 427.344 917.424 428.136 916.992C428.952 916.536 429.588 915.948 430.044 915.228C430.524 914.484 430.764 913.728 430.764 912.96H431.664C431.664 913.92 431.376 914.832 430.8 915.696C430.224 916.56 429.42 917.256 428.388 917.784C427.356 918.288 426.168 918.54 424.824 918.54ZM421.224 909C422.76 909 424.008 908.94 424.968 908.82C425.376 908.796 425.808 908.736 426.264 908.64C426.288 908.52 426.348 908.256 426.444 907.848C426.564 907.248 426.624 906.612 426.624 905.94C426.624 903.948 426.36 902.496 425.832 901.584C425.304 900.648 424.668 900.18 423.924 900.18C422.124 900.18 421.224 903.12 421.224 909ZM435.249 917.46L437.409 916.92V901.08L435.249 900.54V900H438.489C439.905 900 441.021 900.456 441.837 901.368C442.149 901.728 442.413 902.172 442.629 902.7C442.989 902.172 443.433 901.692 443.961 901.26C445.161 900.3 446.505 899.82 447.993 899.82C449.265 899.82 450.213 900.12 450.837 900.72C451.485 901.296 451.809 902.136 451.809 903.24C451.809 904.056 451.557 904.716 451.053 905.22C450.573 905.7 449.925 905.94 449.109 905.94C448.773 905.94 448.437 905.916 448.101 905.868L447.669 905.76V900.72C446.445 900.72 445.329 901.2 444.321 902.16C443.841 902.64 443.457 903.12 443.169 903.6V916.92L445.329 917.46V918H435.249V917.46Z" fill="white"/>
<path d="M309.417 755.54C305.577 755.54 302.577 754.4 300.417 752.12C298.257 749.84 297.177 746.6 297.177 742.4C297.177 739.64 297.645 737.276 298.581 735.308C299.541 733.316 300.873 731.816 302.577 730.808C304.305 729.776 306.297 729.26 308.553 729.26C309.921 729.26 311.301 729.656 312.693 730.448C313.221 730.736 313.749 731.12 314.277 731.6C314.685 730.976 315.105 730.484 315.537 730.124C315.969 729.812 316.209 729.644 316.257 729.62H317.157V736.46H315.717C315.405 735.308 314.937 734.264 314.313 733.328C313.737 732.416 313.017 731.66 312.153 731.06C311.313 730.46 310.341 730.16 309.237 730.16C307.581 730.16 306.201 731.12 305.097 733.04C304.017 734.96 303.477 738.08 303.477 742.4C303.477 746.792 304.065 749.936 305.241 751.832C306.441 753.704 308.073 754.64 310.137 754.64C311.265 754.64 312.333 754.328 313.341 753.704C314.373 753.056 315.201 752.204 315.825 751.148C316.473 750.092 316.797 748.976 316.797 747.8H317.697C317.697 749.168 317.325 750.452 316.581 751.652C315.861 752.828 314.865 753.776 313.593 754.496C312.345 755.192 310.953 755.54 309.417 755.54ZM329.599 755.54C326.623 755.54 324.283 754.7 322.579 753.02C320.899 751.316 320.059 748.976 320.059 746C320.059 743.024 320.899 740.696 322.579 739.016C324.283 737.312 326.623 736.46 329.599 736.46C332.575 736.46 334.903 737.312 336.583 739.016C338.287 740.696 339.139 743.024 339.139 746C339.139 748.976 338.287 751.316 336.583 753.02C334.903 754.7 332.575 755.54 329.599 755.54ZM329.599 754.82C330.559 754.82 331.363 754.148 332.011 752.804C332.683 751.46 333.019 749.192 333.019 746C333.019 742.808 332.683 740.54 332.011 739.196C331.363 737.852 330.559 737.18 329.599 737.18C328.639 737.18 327.823 737.852 327.151 739.196C326.503 740.54 326.179 742.808 326.179 746C326.179 749.192 326.503 751.46 327.151 752.804C327.823 754.148 328.639 754.82 329.599 754.82ZM342.032 754.46L344.192 753.92V738.08L342.032 737.54V737H345.272C346.688 737 347.804 737.456 348.62 738.368C348.932 738.728 349.196 739.172 349.412 739.7C349.748 739.076 350.144 738.536 350.6 738.08C351.68 737 353.024 736.46 354.632 736.46C355.976 736.46 357.176 736.748 358.232 737.324C359.312 737.876 360.152 738.608 360.752 739.52C361.352 740.432 361.652 741.392 361.652 742.4V753.92L363.812 754.46V755H359.132C356.972 755 355.892 753.92 355.892 751.76V742.4C355.892 740.888 355.616 739.736 355.064 738.944C354.536 738.128 353.912 737.72 353.192 737.72C352.28 737.72 351.464 738.2 350.744 739.16C350.432 739.568 350.168 740.048 349.952 740.6V753.92L352.112 754.46V755H342.032V754.46ZM375.333 755.54C373.749 755.54 372.369 755.252 371.193 754.676C370.041 754.1 369.153 753.308 368.529 752.3C367.905 751.292 367.593 750.152 367.593 748.88V737.9H365.073V737H367.593V735.2C367.593 733.04 368.673 731.96 370.833 731.96H373.353V737H378.393V737.9H373.353V748.88C373.353 751.088 373.581 752.6 374.037 753.416C374.493 754.232 375.165 754.64 376.053 754.64C376.917 754.64 377.673 754.22 378.321 753.38C378.969 752.54 379.293 751.4 379.293 749.96H380.193C380.193 751.736 379.749 753.116 378.861 754.1C377.973 755.06 376.797 755.54 375.333 755.54ZM382.18 754.46L384.34 753.92V738.08L382.18 737.54V737H385.42C386.836 737 387.952 737.456 388.768 738.368C389.08 738.728 389.344 739.172 389.56 739.7C389.92 739.172 390.364 738.692 390.892 738.26C392.092 737.3 393.436 736.82 394.924 736.82C396.196 736.82 397.144 737.12 397.768 737.72C398.416 738.296 398.74 739.136 398.74 740.24C398.74 741.056 398.488 741.716 397.984 742.22C397.504 742.7 396.856 742.94 396.04 742.94C395.704 742.94 395.368 742.916 395.032 742.868L394.6 742.76V737.72C393.376 737.72 392.26 738.2 391.252 739.16C390.772 739.64 390.388 740.12 390.1 740.6V753.92L392.26 754.46V755H382.18V754.46ZM409.896 755.54C406.92 755.54 404.58 754.7 402.876 753.02C401.196 751.316 400.356 748.976 400.356 746C400.356 743.024 401.196 740.696 402.876 739.016C404.58 737.312 406.92 736.46 409.896 736.46C412.872 736.46 415.2 737.312 416.88 739.016C418.584 740.696 419.436 743.024 419.436 746C419.436 748.976 418.584 751.316 416.88 753.02C415.2 754.7 412.872 755.54 409.896 755.54ZM409.896 754.82C410.856 754.82 411.66 754.148 412.308 752.804C412.98 751.46 413.316 749.192 413.316 746C413.316 742.808 412.98 740.54 412.308 739.196C411.66 737.852 410.856 737.18 409.896 737.18C408.936 737.18 408.12 737.852 407.448 739.196C406.8 740.54 406.476 742.808 406.476 746C406.476 749.192 406.8 751.46 407.448 752.804C408.12 754.148 408.936 754.82 409.896 754.82ZM404.676 735.2L409.896 729.26L415.116 735.2H413.856L409.896 732.68L405.936 735.2H404.676ZM422.329 754.46L424.489 753.92V730.88L422.329 730.34V729.8H427.009C429.169 729.8 430.249 730.88 430.249 733.04V753.92L432.409 754.46V755H422.329V754.46ZM444.283 755.54C441.211 755.54 438.823 754.7 437.119 753.02C435.415 751.316 434.563 748.976 434.563 746C434.563 744.056 434.935 742.364 435.679 740.924C436.423 739.484 437.455 738.38 438.775 737.612C440.119 736.844 441.655 736.46 443.383 736.46C445.111 736.46 446.623 736.784 447.919 737.432C449.239 738.08 450.247 738.956 450.943 740.06C451.663 741.14 452.023 742.34 452.023 743.66C452.023 744.26 451.963 744.776 451.843 745.208L451.663 745.82C450.631 746.036 449.515 746.216 448.315 746.36C445.795 746.72 443.251 746.9 440.683 746.9C440.683 749.684 441.067 751.676 441.835 752.876C442.603 754.052 443.659 754.64 445.003 754.64C445.939 754.64 446.803 754.424 447.595 753.992C448.411 753.536 449.047 752.948 449.503 752.228C449.983 751.484 450.223 750.728 450.223 749.96H451.123C451.123 750.92 450.835 751.832 450.259 752.696C449.683 753.56 448.879 754.256 447.847 754.784C446.815 755.288 445.627 755.54 444.283 755.54ZM440.683 746C442.219 746 443.467 745.94 444.427 745.82C444.835 745.796 445.267 745.736 445.723 745.64C445.747 745.52 445.807 745.256 445.903 744.848C446.023 744.248 446.083 743.612 446.083 742.94C446.083 740.948 445.819 739.496 445.291 738.584C444.763 737.648 444.127 737.18 443.383 737.18C441.583 737.18 440.683 740.12 440.683 746ZM454.708 754.46L456.868 753.92V738.08L454.708 737.54V737H457.948C459.364 737 460.48 737.456 461.296 738.368C461.608 738.728 461.872 739.172 462.088 739.7C462.448 739.172 462.892 738.692 463.42 738.26C464.62 737.3 465.964 736.82 467.452 736.82C468.724 736.82 469.672 737.12 470.296 737.72C470.944 738.296 471.268 739.136 471.268 740.24C471.268 741.056 471.016 741.716 470.512 742.22C470.032 742.7 469.384 742.94 468.568 742.94C468.232 742.94 467.896 742.916 467.56 742.868L467.128 742.76V737.72C465.904 737.72 464.788 738.2 463.78 739.16C463.3 739.64 462.916 740.12 462.628 740.6V753.92L464.788 754.46V755H454.708V754.46Z" fill="white"/>
<path d="M310.786 592.46L312.946 591.92V568.88L310.786 568.34V567.8H320.326C324.406 567.8 327.346 568.424 329.146 569.672C330.946 570.896 331.846 572.612 331.846 574.82C331.846 576.308 331.45 577.52 330.658 578.456C329.866 579.368 328.846 580.052 327.598 580.508C326.278 581.012 324.874 581.276 323.386 581.3V581.48C324.274 581.528 325.054 581.66 325.726 581.876C327.406 582.404 328.546 583.352 329.146 584.72L332.386 591.92L334.186 592.46V593H329.146C327.178 593 325.738 591.98 324.826 589.94L321.226 581.84H318.886V591.92L321.406 592.46V593H310.786V592.46ZM320.326 580.94C322.006 580.94 323.326 580.412 324.286 579.356C325.246 578.3 325.726 576.788 325.726 574.82C325.726 572.852 325.246 571.34 324.286 570.284C323.326 569.228 322.006 568.7 320.326 568.7H318.886V580.94H320.326ZM345.353 593.54C342.281 593.54 339.893 592.7 338.189 591.02C336.485 589.316 335.633 586.976 335.633 584C335.633 582.056 336.005 580.364 336.749 578.924C337.493 577.484 338.525 576.38 339.845 575.612C341.189 574.844 342.725 574.46 344.453 574.46C346.181 574.46 347.693 574.784 348.989 575.432C350.309 576.08 351.317 576.956 352.013 578.06C352.733 579.14 353.093 580.34 353.093 581.66C353.093 582.26 353.033 582.776 352.913 583.208L352.733 583.82C351.701 584.036 350.585 584.216 349.385 584.36C346.865 584.72 344.321 584.9 341.753 584.9C341.753 587.684 342.137 589.676 342.905 590.876C343.673 592.052 344.729 592.64 346.073 592.64C347.009 592.64 347.873 592.424 348.665 591.992C349.481 591.536 350.117 590.948 350.573 590.228C351.053 589.484 351.293 588.728 351.293 587.96H352.193C352.193 588.92 351.905 589.832 351.329 590.696C350.753 591.56 349.949 592.256 348.917 592.784C347.885 593.288 346.697 593.54 345.353 593.54ZM341.753 584C343.289 584 344.537 583.94 345.497 583.82C345.905 583.796 346.337 583.736 346.793 583.64C346.817 583.52 346.877 583.256 346.973 582.848C347.093 582.248 347.153 581.612 347.153 580.94C347.153 578.948 346.889 577.496 346.361 576.584C345.833 575.648 345.197 575.18 344.453 575.18C342.653 575.18 341.753 578.12 341.753 584ZM343.265 573.2L344.705 567.8H349.385L344.525 573.2H343.265ZM362.446 593.54C360.31 593.54 358.666 593.084 357.514 592.172C356.362 591.26 355.786 590.096 355.786 588.68C355.786 587.744 355.99 586.82 356.398 585.908C356.566 585.476 356.782 585.08 357.046 584.72C358.03 584.48 359.098 584.264 360.25 584.072C362.842 583.64 365.134 583.376 367.126 583.28V582.2C367.126 579.536 366.802 577.7 366.154 576.692C365.506 575.684 364.51 575.18 363.166 575.18C362.662 575.18 362.23 575.24 361.87 575.36L361.366 575.54V580.94L360.898 581.048C360.514 581.096 360.19 581.12 359.926 581.12C359.11 581.12 358.45 580.88 357.946 580.4C357.466 579.896 357.226 579.236 357.226 578.42C357.226 577.316 357.778 576.38 358.882 575.612C360.01 574.844 361.678 574.46 363.886 574.46C365.758 574.46 367.366 574.796 368.71 575.468C370.078 576.116 371.11 577.028 371.806 578.204C372.526 579.356 372.886 580.688 372.886 582.2V591.92L375.046 592.46V593H371.806C370.366 593 369.25 592.556 368.458 591.668C368.122 591.308 367.858 590.852 367.666 590.3C367.33 590.9 366.934 591.44 366.478 591.92C365.398 593 364.054 593.54 362.446 593.54ZM363.886 592.28C364.774 592.28 365.578 591.8 366.298 590.84C366.562 590.48 366.838 590 367.126 589.4V584.18C366.022 584.18 364.966 584.24 363.958 584.36C363.214 584.456 362.71 584.516 362.446 584.54C362.326 584.804 362.206 585.164 362.086 585.62C361.846 586.532 361.726 587.432 361.726 588.32C361.726 589.664 361.93 590.66 362.338 591.308C362.746 591.956 363.262 592.28 363.886 592.28ZM377.223 592.46L379.383 591.92V568.88L377.223 568.34V567.8H381.903C384.063 567.8 385.143 568.88 385.143 571.04V591.92L387.303 592.46V593H377.223V592.46ZM389.458 592.46L391.618 591.92V576.08L389.458 575.54V575H394.138C396.298 575 397.378 576.08 397.378 578.24V591.92L399.538 592.46V593H389.458V592.46ZM394.138 572.84C393.418 572.84 392.818 572.6 392.338 572.12C391.858 571.64 391.618 571.04 391.618 570.32C391.618 569.6 391.858 569 392.338 568.52C392.818 568.04 393.418 567.8 394.138 567.8C394.858 567.8 395.458 568.04 395.938 568.52C396.418 569 396.658 569.6 396.658 570.32C396.658 571.04 396.418 571.64 395.938 572.12C395.458 572.6 394.858 572.84 394.138 572.84ZM410.152 593.54C408.664 593.54 407.332 593.216 406.156 592.568C405.58 592.256 405.112 591.92 404.752 591.56C404.368 592.088 403.948 592.496 403.492 592.784C403.276 592.928 403.036 593.06 402.772 593.18H401.872V587.06H403.312C403.624 588.068 404.08 589.004 404.68 589.868C405.952 591.716 407.536 592.64 409.432 592.64C410.44 592.64 411.196 592.4 411.7 591.92C412.228 591.416 412.492 590.696 412.492 589.76C412.492 588.968 412.132 588.308 411.412 587.78C410.716 587.228 409.612 586.556 408.1 585.764C406.804 585.116 405.748 584.54 404.932 584.036C404.14 583.508 403.456 582.86 402.88 582.092C402.328 581.3 402.052 580.376 402.052 579.32C402.052 577.88 402.664 576.716 403.888 575.828C405.136 574.916 407.044 574.46 409.612 574.46C410.884 574.46 412.06 574.796 413.14 575.468C413.668 575.78 414.124 576.104 414.508 576.44C414.82 576.008 415.24 575.6 415.768 575.216C416.176 574.976 416.416 574.844 416.488 574.82H417.388V580.94H415.948C415.588 579.908 415.144 578.984 414.616 578.168C413.416 576.296 411.988 575.36 410.332 575.36C409.684 575.36 409.132 575.6 408.676 576.08C408.22 576.56 407.992 577.16 407.992 577.88C407.992 578.792 408.376 579.56 409.144 580.184C409.912 580.784 411.076 581.48 412.636 582.272C413.908 582.92 414.916 583.496 415.66 584C416.428 584.48 417.076 585.08 417.604 585.8C418.156 586.52 418.432 587.36 418.432 588.32C418.432 591.8 415.672 593.54 410.152 593.54ZM430.853 593.54C427.781 593.54 425.393 592.7 423.689 591.02C421.985 589.316 421.133 586.976 421.133 584C421.133 582.056 421.505 580.364 422.249 578.924C422.993 577.484 424.025 576.38 425.345 575.612C426.689 574.844 428.225 574.46 429.953 574.46C431.681 574.46 433.193 574.784 434.489 575.432C435.809 576.08 436.817 576.956 437.513 578.06C438.233 579.14 438.593 580.34 438.593 581.66C438.593 582.26 438.533 582.776 438.413 583.208L438.233 583.82C437.201 584.036 436.085 584.216 434.885 584.36C432.365 584.72 429.821 584.9 427.253 584.9C427.253 587.684 427.637 589.676 428.405 590.876C429.173 592.052 430.229 592.64 431.573 592.64C432.509 592.64 433.373 592.424 434.165 591.992C434.981 591.536 435.617 590.948 436.073 590.228C436.553 589.484 436.793 588.728 436.793 587.96H437.693C437.693 588.92 437.405 589.832 436.829 590.696C436.253 591.56 435.449 592.256 434.417 592.784C433.385 593.288 432.197 593.54 430.853 593.54ZM427.253 584C428.789 584 430.037 583.94 430.997 583.82C431.405 583.796 431.837 583.736 432.293 583.64C432.317 583.52 432.377 583.256 432.473 582.848C432.593 582.248 432.653 581.612 432.653 580.94C432.653 578.948 432.389 577.496 431.861 576.584C431.333 575.648 430.697 575.18 429.953 575.18C428.153 575.18 427.253 578.12 427.253 584ZM441.278 592.46L443.438 591.92V576.08L441.278 575.54V575H444.518C445.934 575 447.05 575.456 447.866 576.368C448.178 576.728 448.442 577.172 448.658 577.7C449.018 577.172 449.462 576.692 449.99 576.26C451.19 575.3 452.534 574.82 454.022 574.82C455.294 574.82 456.242 575.12 456.866 575.72C457.514 576.296 457.838 577.136 457.838 578.24C457.838 579.056 457.586 579.716 457.082 580.22C456.602 580.7 455.954 580.94 455.138 580.94C454.802 580.94 454.466 580.916 454.13 580.868L453.698 580.76V575.72C452.474 575.72 451.358 576.2 450.35 577.16C449.87 577.64 449.486 578.12 449.198 578.6V591.92L451.358 592.46V593H441.278V592.46Z" fill="white"/>
<path d="M316.376 431.46L318.536 430.92V407.88L316.376 407.34V406.8H325.556C329.852 406.8 333.14 407.904 335.42 410.112C337.724 412.32 338.876 415.416 338.876 419.4C338.876 423.384 337.724 426.48 335.42 428.688C333.14 430.896 329.852 432 325.556 432H316.376V431.46ZM325.556 431.1C327.788 431.1 329.516 430.2 330.74 428.4C331.964 426.576 332.576 423.576 332.576 419.4C332.576 415.224 331.964 412.236 330.74 410.436C329.516 408.612 327.788 407.7 325.556 407.7H324.476V431.1H325.556ZM351.471 432.54C348.399 432.54 346.011 431.7 344.307 430.02C342.603 428.316 341.751 425.976 341.751 423C341.751 421.056 342.123 419.364 342.867 417.924C343.611 416.484 344.643 415.38 345.963 414.612C347.307 413.844 348.843 413.46 350.571 413.46C352.299 413.46 353.811 413.784 355.107 414.432C356.427 415.08 357.435 415.956 358.131 417.06C358.851 418.14 359.211 419.34 359.211 420.66C359.211 421.26 359.151 421.776 359.031 422.208L358.851 422.82C357.819 423.036 356.703 423.216 355.503 423.36C352.983 423.72 350.439 423.9 347.871 423.9C347.871 426.684 348.255 428.676 349.023 429.876C349.791 431.052 350.847 431.64 352.191 431.64C353.127 431.64 353.991 431.424 354.783 430.992C355.599 430.536 356.235 429.948 356.691 429.228C357.171 428.484 357.411 427.728 357.411 426.96H358.311C358.311 427.92 358.023 428.832 357.447 429.696C356.871 430.56 356.067 431.256 355.035 431.784C354.003 432.288 352.815 432.54 351.471 432.54ZM347.871 423C349.407 423 350.655 422.94 351.615 422.82C352.023 422.796 352.455 422.736 352.911 422.64C352.935 422.52 352.995 422.256 353.091 421.848C353.211 421.248 353.271 420.612 353.271 419.94C353.271 417.948 353.007 416.496 352.479 415.584C351.951 414.648 351.315 414.18 350.571 414.18C348.771 414.18 347.871 417.12 347.871 423ZM349.383 412.2L350.823 406.8H355.503L350.643 412.2H349.383ZM371.615 432.54C368.543 432.54 366.155 431.7 364.451 430.02C362.747 428.316 361.895 425.976 361.895 423C361.895 420.024 362.747 417.696 364.451 416.016C366.155 414.312 368.543 413.46 371.615 413.46C373.823 413.46 375.479 413.844 376.583 414.612C377.711 415.38 378.275 416.316 378.275 417.42C378.275 418.236 378.023 418.896 377.519 419.4C377.039 419.88 376.391 420.12 375.575 420.12C375.239 420.12 374.903 420.096 374.567 420.048L374.135 419.94V414.54L373.631 414.36C373.271 414.24 372.839 414.18 372.335 414.18C370.967 414.18 369.899 414.828 369.131 416.124C368.387 417.42 368.015 419.712 368.015 423C368.015 426.192 368.387 428.436 369.131 429.732C369.899 431.004 370.967 431.64 372.335 431.64C373.271 431.64 374.135 431.424 374.927 430.992C375.743 430.536 376.379 429.948 376.835 429.228C377.315 428.484 377.555 427.728 377.555 426.96H378.455C378.455 427.92 378.167 428.832 377.591 429.696C377.015 430.56 376.211 431.256 375.179 431.784C374.147 432.288 372.959 432.54 371.615 432.54ZM380.985 431.46L383.145 430.92V415.08L380.985 414.54V414H385.665C387.825 414 388.905 415.08 388.905 417.24V430.92L391.065 431.46V432H380.985V431.46ZM385.665 411.84C384.945 411.84 384.345 411.6 383.865 411.12C383.385 410.64 383.145 410.04 383.145 409.32C383.145 408.6 383.385 408 383.865 407.52C384.345 407.04 384.945 406.8 385.665 406.8C386.385 406.8 386.985 407.04 387.465 407.52C387.945 408 388.185 408.6 388.185 409.32C388.185 410.04 387.945 410.64 387.465 411.12C386.985 411.6 386.385 411.84 385.665 411.84ZM400.599 432.54C399.183 432.54 397.923 432.18 396.819 431.46C395.715 430.716 394.839 429.636 394.191 428.22C393.543 426.78 393.219 425.04 393.219 423C393.219 419.928 393.927 417.576 395.343 415.944C396.783 414.288 398.715 413.46 401.139 413.46C402.291 413.46 403.299 413.7 404.163 414.18C404.523 414.348 404.895 414.588 405.279 414.9V407.88L403.119 407.34V406.8H407.799C409.959 406.8 411.039 407.88 411.039 410.04V430.92L413.199 431.46V432H409.959C408.519 432 407.403 431.556 406.611 430.668C406.275 430.308 406.011 429.852 405.819 429.3C405.507 429.9 405.111 430.44 404.631 430.92C403.551 432 402.207 432.54 400.599 432.54ZM402.039 431.28C402.927 431.28 403.731 430.8 404.451 429.84C404.715 429.48 404.991 429 405.279 428.4V415.98C405.015 415.716 404.739 415.476 404.451 415.26C403.803 414.78 403.179 414.54 402.579 414.54C401.547 414.54 400.743 415.14 400.167 416.34C399.615 417.54 399.339 419.76 399.339 423C399.339 426.096 399.591 428.256 400.095 429.48C400.623 430.68 401.271 431.28 402.039 431.28ZM425.264 432.54C422.192 432.54 419.804 431.7 418.1 430.02C416.396 428.316 415.544 425.976 415.544 423C415.544 421.056 415.916 419.364 416.66 417.924C417.404 416.484 418.436 415.38 419.756 414.612C421.1 413.844 422.636 413.46 424.364 413.46C426.092 413.46 427.604 413.784 428.9 414.432C430.22 415.08 431.228 415.956 431.924 417.06C432.644 418.14 433.004 419.34 433.004 420.66C433.004 421.26 432.944 421.776 432.824 422.208L432.644 422.82C431.612 423.036 430.496 423.216 429.296 423.36C426.776 423.72 424.232 423.9 421.664 423.9C421.664 426.684 422.048 428.676 422.816 429.876C423.584 431.052 424.64 431.64 425.984 431.64C426.92 431.64 427.784 431.424 428.576 430.992C429.392 430.536 430.028 429.948 430.484 429.228C430.964 428.484 431.204 427.728 431.204 426.96H432.104C432.104 427.92 431.816 428.832 431.24 429.696C430.664 430.56 429.86 431.256 428.828 431.784C427.796 432.288 426.608 432.54 425.264 432.54ZM421.664 423C423.2 423 424.448 422.94 425.408 422.82C425.816 422.796 426.248 422.736 426.704 422.64C426.728 422.52 426.788 422.256 426.884 421.848C427.004 421.248 427.064 420.612 427.064 419.94C427.064 417.948 426.8 416.496 426.272 415.584C425.744 414.648 425.108 414.18 424.364 414.18C422.564 414.18 421.664 417.12 421.664 423ZM435.688 431.46L437.848 430.92V415.08L435.688 414.54V414H438.928C440.344 414 441.46 414.456 442.276 415.368C442.588 415.728 442.852 416.172 443.068 416.7C443.428 416.172 443.872 415.692 444.4 415.26C445.6 414.3 446.944 413.82 448.432 413.82C449.704 413.82 450.652 414.12 451.276 414.72C451.924 415.296 452.248 416.136 452.248 417.24C452.248 418.056 451.996 418.716 451.492 419.22C451.012 419.7 450.364 419.94 449.548 419.94C449.212 419.94 448.876 419.916 448.54 419.868L448.108 419.76V414.72C446.884 414.72 445.768 415.2 444.76 416.16C444.28 416.64 443.896 417.12 443.608 417.6V430.92L445.768 431.46V432H435.688V431.46Z" fill="white"/>
<path d="M304.95 266.46L307.11 265.92V242.88L304.95 242.34V241.8H315.03C319.014 241.8 321.87 242.46 323.598 243.78C325.326 245.076 326.19 246.996 326.19 249.54C326.19 252.084 325.326 254.016 323.598 255.336C321.87 256.632 319.014 257.28 315.03 257.28H313.05V265.92L315.21 266.46V267H304.95V266.46ZM315.03 256.38C316.542 256.38 317.754 255.804 318.666 254.652C319.602 253.5 320.07 251.796 320.07 249.54C320.07 247.308 319.602 245.616 318.666 244.464C317.754 243.288 316.542 242.7 315.03 242.7H313.05V256.38H315.03ZM328.883 266.46L331.043 265.92V242.88L328.883 242.34V241.8H333.563C335.723 241.8 336.803 242.88 336.803 245.04V265.92L338.963 266.46V267H328.883V266.46ZM348.138 267.54C346.002 267.54 344.358 267.084 343.206 266.172C342.054 265.26 341.478 264.096 341.478 262.68C341.478 261.744 341.682 260.82 342.09 259.908C342.258 259.476 342.474 259.08 342.738 258.72C343.722 258.48 344.79 258.264 345.942 258.072C348.534 257.64 350.826 257.376 352.818 257.28V256.2C352.818 253.536 352.494 251.7 351.846 250.692C351.198 249.684 350.202 249.18 348.858 249.18C348.354 249.18 347.922 249.24 347.562 249.36L347.058 249.54V254.94L346.59 255.048C346.206 255.096 345.882 255.12 345.618 255.12C344.802 255.12 344.142 254.88 343.638 254.4C343.158 253.896 342.918 253.236 342.918 252.42C342.918 251.316 343.47 250.38 344.574 249.612C345.702 248.844 347.37 248.46 349.578 248.46C351.45 248.46 353.058 248.796 354.402 249.468C355.77 250.116 356.802 251.028 357.498 252.204C358.218 253.356 358.578 254.688 358.578 256.2V265.92L360.738 266.46V267H357.498C356.058 267 354.942 266.556 354.15 265.668C353.814 265.308 353.55 264.852 353.358 264.3C353.022 264.9 352.626 265.44 352.17 265.92C351.09 267 349.746 267.54 348.138 267.54ZM349.578 266.28C350.466 266.28 351.27 265.8 351.99 264.84C352.254 264.48 352.53 264 352.818 263.4V258.18C351.714 258.18 350.658 258.24 349.65 258.36C348.906 258.456 348.402 258.516 348.138 258.54C348.018 258.804 347.898 259.164 347.778 259.62C347.538 260.532 347.418 261.432 347.418 262.32C347.418 263.664 347.622 264.66 348.03 265.308C348.438 265.956 348.954 266.28 349.578 266.28ZM362.915 266.46L365.075 265.92V250.08L362.915 249.54V249H366.155C367.571 249 368.687 249.456 369.503 250.368C369.815 250.728 370.079 251.172 370.295 251.7C370.631 251.076 371.027 250.536 371.483 250.08C372.563 249 373.907 248.46 375.515 248.46C376.859 248.46 378.059 248.748 379.115 249.324C380.195 249.876 381.035 250.608 381.635 251.52C382.235 252.432 382.535 253.392 382.535 254.4V265.92L384.695 266.46V267H380.015C377.855 267 376.775 265.92 376.775 263.76V254.4C376.775 252.888 376.499 251.736 375.947 250.944C375.419 250.128 374.795 249.72 374.075 249.72C373.163 249.72 372.347 250.2 371.627 251.16C371.315 251.568 371.051 252.048 370.835 252.6V265.92L372.995 266.46V267H362.915V266.46ZM386.856 266.46L389.016 265.92V250.08L386.856 249.54V249H391.536C393.696 249 394.776 250.08 394.776 252.24V265.92L396.936 266.46V267H386.856V266.46ZM391.536 246.84C390.816 246.84 390.216 246.6 389.736 246.12C389.256 245.64 389.016 245.04 389.016 244.32C389.016 243.6 389.256 243 389.736 242.52C390.216 242.04 390.816 241.8 391.536 241.8C392.256 241.8 392.856 242.04 393.336 242.52C393.816 243 394.056 243.6 394.056 244.32C394.056 245.04 393.816 245.64 393.336 246.12C392.856 246.6 392.256 246.84 391.536 246.84ZM398.91 266.46L401.07 265.92V250.62H398.55V249.72H401.07V247.92C401.07 246.648 401.37 245.508 401.97 244.5C402.594 243.492 403.47 242.7 404.598 242.124C405.75 241.548 407.094 241.26 408.63 241.26C409.878 241.26 410.946 241.452 411.834 241.836C412.746 242.196 413.43 242.688 413.886 243.312C414.342 243.912 414.57 244.548 414.57 245.22C414.57 246.036 414.318 246.696 413.814 247.2C413.334 247.68 412.686 247.92 411.87 247.92C411.534 247.92 411.198 247.896 410.862 247.848L410.43 247.74V242.16L410.106 242.088C410.01 242.064 409.902 242.04 409.782 242.016C409.662 241.992 409.518 241.98 409.35 241.98C408.534 241.98 407.91 242.412 407.478 243.276C407.046 244.116 406.83 245.664 406.83 247.92V249.72H412.59V250.62H406.83V265.92L408.99 266.46V267H398.91V266.46ZM414.735 266.46L416.895 265.92V250.08L414.735 249.54V249H419.415C421.575 249 422.655 250.08 422.655 252.24V265.92L424.815 266.46V267H414.735V266.46ZM419.415 246.84C418.695 246.84 418.095 246.6 417.615 246.12C417.135 245.64 416.895 245.04 416.895 244.32C416.895 243.6 417.135 243 417.615 242.52C418.095 242.04 418.695 241.8 419.415 241.8C420.135 241.8 420.735 242.04 421.215 242.52C421.695 243 421.935 243.6 421.935 244.32C421.935 245.04 421.695 245.64 421.215 246.12C420.735 246.6 420.135 246.84 419.415 246.84ZM436.689 267.54C433.617 267.54 431.229 266.7 429.525 265.02C427.821 263.316 426.969 260.976 426.969 258C426.969 256.056 427.341 254.364 428.085 252.924C428.829 251.484 429.861 250.38 431.181 249.612C432.525 248.844 434.061 248.46 435.789 248.46C437.517 248.46 439.029 248.784 440.325 249.432C441.645 250.08 442.653 250.956 443.349 252.06C444.069 253.14 444.429 254.34 444.429 255.66C444.429 256.26 444.369 256.776 444.249 257.208L444.069 257.82C443.037 258.036 441.921 258.216 440.721 258.36C438.201 258.72 435.657 258.9 433.089 258.9C433.089 261.684 433.473 263.676 434.241 264.876C435.009 266.052 436.065 266.64 437.409 266.64C438.345 266.64 439.209 266.424 440.001 265.992C440.817 265.536 441.453 264.948 441.909 264.228C442.389 263.484 442.629 262.728 442.629 261.96H443.529C443.529 262.92 443.241 263.832 442.665 264.696C442.089 265.56 441.285 266.256 440.253 266.784C439.221 267.288 438.033 267.54 436.689 267.54ZM433.089 258C434.625 258 435.873 257.94 436.833 257.82C437.241 257.796 437.673 257.736 438.129 257.64C438.153 257.52 438.213 257.256 438.309 256.848C438.429 256.248 438.489 255.612 438.489 254.94C438.489 252.948 438.225 251.496 437.697 250.584C437.169 249.648 436.533 249.18 435.789 249.18C433.989 249.18 433.089 252.12 433.089 258ZM447.114 266.46L449.274 265.92V250.08L447.114 249.54V249H450.354C451.77 249 452.886 249.456 453.702 250.368C454.014 250.728 454.278 251.172 454.494 251.7C454.854 251.172 455.298 250.692 455.826 250.26C457.026 249.3 458.37 248.82 459.858 248.82C461.13 248.82 462.078 249.12 462.702 249.72C463.35 250.296 463.674 251.136 463.674 252.24C463.674 253.056 463.422 253.716 462.918 254.22C462.438 254.7 461.79 254.94 460.974 254.94C460.638 254.94 460.302 254.916 459.966 254.868L459.534 254.76V249.72C458.31 249.72 457.194 250.2 456.186 251.16C455.706 251.64 455.322 252.12 455.034 252.6V265.92L457.194 266.46V267H447.114V266.46Z" fill="white"/>
<g filter="url(#filter6_d)">
<path d="M382.586 202.414C383.367 203.195 384.633 203.195 385.414 202.414L398.142 189.686C398.923 188.905 398.923 187.639 398.142 186.858C397.361 186.077 396.095 186.077 395.314 186.858L384 198.172L372.686 186.858C371.905 186.077 370.639 186.077 369.858 186.858C369.077 187.639 369.077 188.905 369.858 189.686L382.586 202.414ZM382 142V201H386V142H382Z" fill="#B1FBD3" fill-opacity="0.9"/>
</g>
<g filter="url(#filter7_d)">
<path d="M382.586 854.414C383.367 855.195 384.633 855.195 385.414 854.414L398.142 841.686C398.923 840.905 398.923 839.639 398.142 838.858C397.361 838.077 396.095 838.077 395.314 838.858L384 850.172L372.686 838.858C371.905 838.077 370.639 838.077 369.858 838.858C369.077 839.639 369.077 840.905 369.858 841.686L382.586 854.414ZM382 794V853H386V794H382Z" fill="#B1FBD3" fill-opacity="0.9"/>
</g>
<g filter="url(#filter8_d)">
<path d="M382.586 691.414C383.367 692.195 384.633 692.195 385.414 691.414L398.142 678.686C398.923 677.905 398.923 676.639 398.142 675.858C397.361 675.077 396.095 675.077 395.314 675.858L384 687.172L372.686 675.858C371.905 675.077 370.639 675.077 369.858 675.858C369.077 676.639 369.077 677.905 369.858 678.686L382.586 691.414ZM382 631V690H386V631H382Z" fill="#B1FBD3" fill-opacity="0.9"/>
</g>
<g filter="url(#filter9_d)">
<path d="M382.586 528.414C383.367 529.195 384.633 529.195 385.414 528.414L398.142 515.686C398.923 514.905 398.923 513.639 398.142 512.858C397.361 512.077 396.095 512.077 395.314 512.858L384 524.172L372.686 512.858C371.905 512.077 370.639 512.077 369.858 512.858C369.077 513.639 369.077 514.905 369.858 515.686L382.586 528.414ZM382 468V527H386V468H382Z" fill="#B1FBD3" fill-opacity="0.9"/>
</g>
<g filter="url(#filter10_d)">
<path d="M382.586 365.414C383.367 366.195 384.633 366.195 385.414 365.414L398.142 352.686C398.923 351.905 398.923 350.639 398.142 349.858C397.361 349.077 396.095 349.077 395.314 349.858L384 361.172L372.686 349.858C371.905 349.077 370.639 349.077 369.858 349.858C369.077 350.639 369.077 351.905 369.858 352.686L382.586 365.414ZM382 305V364H386V305H382Z" fill="#B1FBD3" fill-opacity="0.9"/>
</g>
<defs>
<filter id="filter0_d" x="175" y="199" width="425" height="122" filterUnits="userSpaceOnUse" color-interpolation-filters="sRGB">
<feFlood flood-opacity="0" result="BackgroundImageFix"/>
<feColorMatrix in="SourceAlpha" type="matrix" values="0 0 0 0 0 0 0 0 0 0 0 0 0 0 0 0 0 0 127 0"/>
<feOffset dx="4" dy="6"/>
<feGaussianBlur stdDeviation="5"/>
<feColorMatrix type="matrix" values="0 0 0 0 0 0 0 0 0 0 0 0 0 0 0 0 0 0 0.25 0"/>
<feBlend mode="normal" in2="BackgroundImageFix" result="effect1_dropShadow"/>
<feBlend mode="normal" in="SourceGraphic" in2="effect1_dropShadow" result="shape"/>
</filter>
<filter id="filter1_d" x="175" y="851" width="425" height="122" filterUnits="userSpaceOnUse" color-interpolation-filters="sRGB">
<feFlood flood-opacity="0" result="BackgroundImageFix"/>
<feColorMatrix in="SourceAlpha" type="matrix" values="0 0 0 0 0 0 0 0 0 0 0 0 0 0 0 0 0 0 127 0"/>
<feOffset dx="4" dy="6"/>
<feGaussianBlur stdDeviation="5"/>
<feColorMatrix type="matrix" values="0 0 0 0 0 0 0 0 0 0 0 0 0 0 0 0 0 0 0.25 0"/>
<feBlend mode="normal" in2="BackgroundImageFix" result="effect1_dropShadow"/>
<feBlend mode="normal" in="SourceGraphic" in2="effect1_dropShadow" result="shape"/>
</filter>
<filter id="filter2_d" x="175" y="688" width="425" height="122" filterUnits="userSpaceOnUse" color-interpolation-filters="sRGB">
<feFlood flood-opacity="0" result="BackgroundImageFix"/>
<feColorMatrix in="SourceAlpha" type="matrix" values="0 0 0 0 0 0 0 0 0 0 0 0 0 0 0 0 0 0 127 0"/>
<feOffset dx="4" dy="6"/>
<feGaussianBlur stdDeviation="5"/>
<feColorMatrix type="matrix" values="0 0 0 0 0 0 0 0 0 0 0 0 0 0 0 0 0 0 0.25 0"/>
<feBlend mode="normal" in2="BackgroundImageFix" result="effect1_dropShadow"/>
<feBlend mode="normal" in="SourceGraphic" in2="effect1_dropShadow" result="shape"/>
</filter>
<filter id="filter3_d" x="175" y="525" width="425" height="122" filterUnits="userSpaceOnUse" color-interpolation-filters="sRGB">
<feFlood flood-opacity="0" result="BackgroundImageFix"/>
<feColorMatrix in="SourceAlpha" type="matrix" values="0 0 0 0 0 0 0 0 0 0 0 0 0 0 0 0 0 0 127 0"/>
<feOffset dx="4" dy="6"/>
<feGaussianBlur stdDeviation="5"/>
<feColorMatrix type="matrix" values="0 0 0 0 0 0 0 0 0 0 0 0 0 0 0 0 0 0 0.25 0"/>
<feBlend mode="normal" in2="BackgroundImageFix" result="effect1_dropShadow"/>
<feBlend mode="normal" in="SourceGraphic" in2="effect1_dropShadow" result="shape"/>
</filter>
<filter id="filter4_d" x="175" y="362" width="425" height="122" filterUnits="userSpaceOnUse" color-interpolation-filters="sRGB">
<feFlood flood-opacity="0" result="BackgroundImageFix"/>
<feColorMatrix in="SourceAlpha" type="matrix" values="0 0 0 0 0 0 0 0 0 0 0 0 0 0 0 0 0 0 127 0"/>
<feOffset dx="4" dy="6"/>
<feGaussianBlur stdDeviation="5"/>
<feColorMatrix type="matrix" values="0 0 0 0 0 0 0 0 0 0 0 0 0 0 0 0 0 0 0.25 0"/>
<feBlend mode="normal" in2="BackgroundImageFix" result="effect1_dropShadow"/>
<feBlend mode="normal" in="SourceGraphic" in2="effect1_dropShadow" result="shape"/>
</filter>
<filter id="filter5_d" x="175" y="36" width="425" height="122" filterUnits="userSpaceOnUse" color-interpolation-filters="sRGB">
<feFlood flood-opacity="0" result="BackgroundImageFix"/>
<feColorMatrix in="SourceAlpha" type="matrix" values="0 0 0 0 0 0 0 0 0 0 0 0 0 0 0 0 0 0 127 0"/>
<feOffset dx="4" dy="6"/>
<feGaussianBlur stdDeviation="5"/>
<feColorMatrix type="matrix" values="0 0 0 0 0 0 0 0 0 0 0 0 0 0 0 0 0 0 0.25 0"/>
<feBlend mode="normal" in2="BackgroundImageFix" result="effect1_dropShadow"/>
<feBlend mode="normal" in="SourceGraphic" in2="effect1_dropShadow" result="shape"/>
</filter>
<filter id="filter6_d" x="363.272" y="138" width="49.4558" height="81" filterUnits="userSpaceOnUse" color-interpolation-filters="sRGB">
<feFlood flood-opacity="0" result="BackgroundImageFix"/>
<feColorMatrix in="SourceAlpha" type="matrix" values="0 0 0 0 0 0 0 0 0 0 0 0 0 0 0 0 0 0 127 0"/>
<feOffset dx="4" dy="6"/>
<feGaussianBlur stdDeviation="5"/>
<feColorMatrix type="matrix" values="0 0 0 0 0 0 0 0 0 0 0 0 0 0 0 0 0 0 0.25 0"/>
<feBlend mode="normal" in2="BackgroundImageFix" result="effect1_dropShadow"/>
<feBlend mode="normal" in="SourceGraphic" in2="effect1_dropShadow" result="shape"/>
</filter>
<filter id="filter7_d" x="363.272" y="790" width="49.4558" height="81" filterUnits="userSpaceOnUse" color-interpolation-filters="sRGB">
<feFlood flood-opacity="0" result="BackgroundImageFix"/>
<feColorMatrix in="SourceAlpha" type="matrix" values="0 0 0 0 0 0 0 0 0 0 0 0 0 0 0 0 0 0 127 0"/>
<feOffset dx="4" dy="6"/>
<feGaussianBlur stdDeviation="5"/>
<feColorMatrix type="matrix" values="0 0 0 0 0 0 0 0 0 0 0 0 0 0 0 0 0 0 0.25 0"/>
<feBlend mode="normal" in2="BackgroundImageFix" result="effect1_dropShadow"/>
<feBlend mode="normal" in="SourceGraphic" in2="effect1_dropShadow" result="shape"/>
</filter>
<filter id="filter8_d" x="363.272" y="627" width="49.4558" height="81" filterUnits="userSpaceOnUse" color-interpolation-filters="sRGB">
<feFlood flood-opacity="0" result="BackgroundImageFix"/>
<feColorMatrix in="SourceAlpha" type="matrix" values="0 0 0 0 0 0 0 0 0 0 0 0 0 0 0 0 0 0 127 0"/>
<feOffset dx="4" dy="6"/>
<feGaussianBlur stdDeviation="5"/>
<feColorMatrix type="matrix" values="0 0 0 0 0 0 0 0 0 0 0 0 0 0 0 0 0 0 0.25 0"/>
<feBlend mode="normal" in2="BackgroundImageFix" result="effect1_dropShadow"/>
<feBlend mode="normal" in="SourceGraphic" in2="effect1_dropShadow" result="shape"/>
</filter>
<filter id="filter9_d" x="363.272" y="464" width="49.4558" height="81" filterUnits="userSpaceOnUse" color-interpolation-filters="sRGB">
<feFlood flood-opacity="0" result="BackgroundImageFix"/>
<feColorMatrix in="SourceAlpha" type="matrix" values="0 0 0 0 0 0 0 0 0 0 0 0 0 0 0 0 0 0 127 0"/>
<feOffset dx="4" dy="6"/>
<feGaussianBlur stdDeviation="5"/>
<feColorMatrix type="matrix" values="0 0 0 0 0 0 0 0 0 0 0 0 0 0 0 0 0 0 0.25 0"/>
<feBlend mode="normal" in2="BackgroundImageFix" result="effect1_dropShadow"/>
<feBlend mode="normal" in="SourceGraphic" in2="effect1_dropShadow" result="shape"/>
</filter>
<filter id="filter10_d" x="363.272" y="301" width="49.4558" height="81" filterUnits="userSpaceOnUse" color-interpolation-filters="sRGB">
<feFlood flood-opacity="0" result="BackgroundImageFix"/>
<feColorMatrix in="SourceAlpha" type="matrix" values="0 0 0 0 0 0 0 0 0 0 0 0 0 0 0 0 0 0 127 0"/>
<feOffset dx="4" dy="6"/>
<feGaussianBlur stdDeviation="5"/>
<feColorMatrix type="matrix" values="0 0 0 0 0 0 0 0 0 0 0 0 0 0 0 0 0 0 0.25 0"/>
<feBlend mode="normal" in2="BackgroundImageFix" result="effect1_dropShadow"/>
<feBlend mode="normal" in="SourceGraphic" in2="effect1_dropShadow" result="shape"/>
</filter>
</defs>
</svg>
